<svg version="1.2" baseProfile="tiny-ps" xmlns="http://www.w3.org/2000/svg" viewBox="0 0 208 34" width="208" height="34"><title>MAGbank </title><style>tspan { white-space:pre }</style><path fill="#e32e2e" aria-label="MAGbank"  d="M34.6 2.43L21.89 18.56L15.3 2.43L6.98 2.43L0.91 32.78L10.23 32.78L12.96 19.12L17.65 30.05L22.15 30.05L30.7 18.95L28.01 32.78L37.33 32.78L43.32 2.43ZM62.14 32.78L72.33 32.78L65.13 2.43L55.07 2.43L35.73 32.78L46.53 32.78L49.56 27.49L61.14 27.49ZM53.77 20.12L58.23 12.36L59.71 20.12ZM91.97 24.76C90.97 25.06 89.98 25.19 88.98 25.19C84.77 25.19 82.3 22.81 82.3 19.25C82.3 13.83 85.68 10.02 91.02 10.02C93.88 10.02 96 10.84 97.95 13.36L105.28 7.68C102.42 3.77 97.87 1.73 91.49 1.73C79.92 1.73 71.98 9.24 71.98 19.9C71.98 27.97 78.14 33.48 87.55 33.48C92.36 33.48 96.65 32.18 99.86 29.88L102.46 16.78L93.57 16.78Z" /><path fill="#4e3a63" aria-label="MAGbank"  d="M117.95 9.8C114.35 9.8 111.4 11.14 109.27 13.4L111.83 0.61L108.75 0.61L102.33 32.78L105.28 32.78L106.28 27.8C107.54 31.14 110.57 33 115 33C122.45 33 127.92 27.28 127.92 19.43C127.92 13.44 123.8 9.8 117.95 9.8ZM114.95 30.27C110.18 30.27 107.45 27.67 107.45 23.2C107.45 16.96 111.61 12.49 117.29 12.49C122.06 12.49 124.8 15.13 124.8 19.6C124.8 25.8 120.63 30.27 114.95 30.27ZM152.51 9.97L151.55 14.74C150.25 11.58 147.22 9.8 142.88 9.8C135.46 9.8 130 15.52 130 23.33C130 29.36 134.08 33 139.93 33C143.62 33 146.65 31.57 148.82 29.18L148.08 32.78L151.03 32.78L155.58 9.97ZM140.58 30.27C135.81 30.27 133.08 27.67 133.08 23.2C133.08 17 137.29 12.49 142.97 12.49C147.74 12.49 150.47 15.13 150.47 19.6C150.47 25.8 146.26 30.27 140.58 30.27ZM172.02 9.8C168.42 9.8 165.3 11.01 163.09 13.62L163.82 9.97L160.88 9.97L156.37 32.78L159.44 32.78L161.87 20.55C162.96 15.22 166.3 12.58 171.15 12.58C175.1 12.58 177.05 14.44 177.05 17.69C177.05 18.34 176.96 19.04 176.83 19.77L174.23 32.78L177.31 32.78L179.91 19.82C180.09 18.91 180.17 18.04 180.17 17.22C180.17 12.58 177.18 9.8 172.02 9.8ZM207.71 9.97L203.33 9.97L187.63 22.25L191.97 0.61L188.89 0.61L182.47 32.78L185.55 32.78L186.85 26.19L193.22 21.25L200.25 32.78L203.85 32.78L195.65 19.38Z" /></svg>